{
  "accessors": [
    {
      "bufferView": 1,
      "componentType": 5126,
      "count": 1572,
      "max": [
        0.0,
        0.5624619722366333,
        0.5559892058372498
      ],
      "min": [
        -1.0988999605178833,
        -0.459454208612442,
        -0.4909471869468689
      ],
      "type": "VEC3"
    },
    {
      "bufferView": 1,
      "byteOffset": 18864,
      "componentType": 5126,
      "count": 1572,
      "max": [
        1.0,
        1.0,
        1.0
      ],
      "min": [
        -1.0,
        -1.0,
        -1.0
      ],
      "type": "VEC3"
    },
    {
      "bufferView": 0,
      "componentType": 5125,
      "count": 20064,
      "type": "SCALAR"
    },
    {
      "bufferView": 1,
      "byteOffset": 37728,
      "componentType": 5126,
      "count": 1428,
      "max": [
        1.0573999881744385,
        0.34950000047683716,
        0.34950000047683716
      ],
      "min": [
        0.0,
        -0.34950000047683716,
        -0.5037735104560852
      ],
      "type": "VEC3"
    },
    {
      "bufferView": 1,
      "byteOffset": 54864,
      "componentType": 5126,
      "count": 1428,
      "max": [
        1.0,
        1.0,
        1.0
      ],
      "min": [
        -1.0,
        -1.0,
        -1.0
      ],
      "type": "VEC3"
    },
    {
      "bufferView": 0,
      "byteOffset": 80256,
      "componentType": 5125,
      "count": 11952,
      "type": "SCALAR"
    },
    {
      "bufferView": 1,
      "byteOffset": 72000,
      "componentType": 5126,
      "count": 5424,
      "max": [
        1.2465999126434326,
        1.264299988746643,
        1.2315999269485474
      ],
      "min": [
        -1.326200008392334,
        -0.9381999969482422,
        -1.1333999633789063
      ],
      "type": "VEC3"
    },
    {
      "bufferView": 1,
      "byteOffset": 137088,
      "componentType": 5126,
      "count": 5424,
      "max": [
        1.0,
        1.0,
        1.0
      ],
      "min": [
        -1.0,
        -1.0,
        -1.0
      ],
      "type": "VEC3"
    },
    {
      "bufferView": 0,
      "byteOffset": 128064,
      "componentType": 5125,
      "count": 31584,
      "type": "SCALAR"
    }
  ],
  "asset": {
    "extras": {
      "author": "S.Duce (https://sketchfab.com/sduce)",
      "license": "CC-BY-4.0 (http://creativecommons.org/licenses/by/4.0/)",
      "source": "https://sketchfab.com/3d-models/methanol-methyl-alcohol-molecule-2df4fbd174f64e5594b27841dc6797df",
      "title": "Methanol (methyl alcohol) Molecule"
    },
    "generator": "Sketchfab-13.58.0",
    "version": "2.0"
  },
  "bufferViews": [
    {
      "buffer": 0,
      "byteLength": 254400,
      "name": "floatBufferViews",
      "target": 34963
    },
    {
      "buffer": 0,
      "byteLength": 202176,
      "byteOffset": 254400,
      "byteStride": 12,
      "name": "floatBufferViews",
      "target": 34962
    }
  ],
  "buffers": [
    {
      "byteLength": 456576,
      "uri": "scene.bin"
    }
  ],
  "materials": [
    {
      "doubleSided": true,
      "name": "k909090",
      "pbrMetallicRoughness": {
        "baseColorFactor": [
          0.566,
          0.566,
          0.566,
          1.0
        ],
        "metallicFactor": 0.0,
        "roughnessFactor": 0.9106721441304432
      }
    },
    {
      "doubleSided": true,
      "name": "kff0d0d",
      "pbrMetallicRoughness": {
        "baseColorFactor": [
          1.0,
          0.055,
          0.055,
          1.0
        ],
        "metallicFactor": 0.0,
        "roughnessFactor": 0.9106721441304432
      }
    },
    {
      "doubleSided": true,
      "name": "kffffff",
      "pbrMetallicRoughness": {
        "metallicFactor": 0.0,
        "roughnessFactor": 0.9106721441304432
      }
    }
  ],
  "meshes": [
    {
      "name": "Object_0",
      "primitives": [
        {
          "attributes": {
            "NORMAL": 1,
            "POSITION": 0
          },
          "indices": 2,
          "material": 0,
          "mode": 4
        }
      ]
    },
    {
      "name": "Object_1",
      "primitives": [
        {
          "attributes": {
            "NORMAL": 4,
            "POSITION": 3
          },
          "indices": 5,
          "material": 1,
          "mode": 4
        }
      ]
    },
    {
      "name": "Object_2",
      "primitives": [
        {
          "attributes": {
            "NORMAL": 7,
            "POSITION": 6
          },
          "indices": 8,
          "material": 2,
          "mode": 4
        }
      ]
    }
  ],
  "nodes": [
    {
      "children": [
        1
      ],
      "matrix": [
        0.9747258424758911,
        0.015278526581823776,
        0.22288136184215546,
        0.0,
        -0.2227133959531784,
        0.1448637396097181,
        0.9640607833862305,
        0.0,
        -0.01755799911916256,
        -0.9893336296081543,
        0.14460515975952126,
        0.0,
        0.0,
        0.0,
        0.0,
        1.0
      ],
      "name": "Sketchfab_model"
    },
    {
      "children": [
        2,
        3,
        4
      ],
      "name": "Methanol.obj.cleaner.materialmerger.gles"
    },
    {
      "mesh": 0,
      "name": "Object_2"
    },
    {
      "mesh": 1,
      "name": "Object_3"
    },
    {
      "mesh": 2,
      "name": "Object_4"
    }
  ],
  "scene": 0,
  "scenes": [
    {
      "name": "Sketchfab_Scene",
      "nodes": [
        0
      ]
    }
  ]
}
